<?xml version="1.0" standalone="no"?>
<!DOCTYPE svg PUBLIC "-//W3C//DTD SVG 1.1//EN" "http://www.w3.org/Graphics/SVG/1.1/DTD/svg11.dtd">
<svg xmlns="http://www.w3.org/2000/svg">
<metadata>Generated by Fontastic.me</metadata>
<defs>
<font id="recruitment-icon" horiz-adv-x="512">
<font-face font-family="recruitment-icon" units-per-em="512" ascent="480" descent="-32"/>
<missing-glyph horiz-adv-x="512" />

<glyph glyph-name="accept-approve1-ie" unicode="&#97;" d="M437 437c-100 100-262 100-362 0-100-100-100-262 0-362 100-100 262-100 362 0 100 100 100 262 0 362z m-14-348c-45-44-104-69-167-69-63 0-122 25-167 69-44 45-69 104-69 167 1 63 25 122 69 166 45 45 104 69 167 69 63 0 122-24 167-69 44-44 69-103 69-166 0-63-25-122-69-167z m-34 270c-3 0-6-1-8-3l-171-171c-4-4-9-5-15-3-2 0-3 2-5 3l-56 56c-1 1-2 2-4 3-5 1-10 0-13-4-4-4-3-11 1-16l74-73c1-1 2-2 4-3 5-1 9 0 12 3l189 189c1 1 2 2 3 4 1 4 0 9-3 12-2 2-5 3-8 3z"/>
<glyph glyph-name="accept-approve2-ie" unicode="&#98;" d="M374 356l-144-143-79 79-36-36 115-115 180 179z m-118 156c-141 0-256-115-256-256 0-141 115-256 256-256 141 0 256 115 256 256 0 141-115 256-256 256z m0-461c-113 0-205 92-205 205 0 113 92 205 205 205 113 0 205-92 205-205 0-113-92-205-205-205z"/>
<glyph glyph-name="accept-approve3-ie" unicode="&#99;" d="M256 512c-141 0-256-115-256-256 0-141 115-256 256-256 141 0 256 115 256 256 0 141-115 256-256 256z m-26-371l-115 115 36 36 79-79 143 143 37-36z"/>
<glyph glyph-name="add1-ie" unicode="&#100;" d="M256 512c-141 0-256-115-256-256 0-141 115-256 256-256 141 0 256 115 256 256 0 141-115 256-256 256z m167-422c-45-45-104-70-167-70-63 0-122 25-167 70-44 44-69 103-69 166 0 63 25 122 69 167 45 44 104 68 167 68 63 0 122-24 167-69 44-44 69-103 69-166 0-63-25-122-69-166z m-99 176l-58 0 0 59c0 5-4 9-10 9-5 0-10-4-10-9l0-59-58 0c-5 0-10-4-10-9 0-6 4-10 10-10l58 0 0-58c0-6 4-10 10-10 5 0 10 4 10 10l0 58 58 0c5 0 10 4 10 10 0 5-5 9-10 9z"/>
<glyph glyph-name="add2-ie" unicode="&#101;" d="M282 384l-52 0 0-102-102 0 0-52 102 0 0-102 52 0 0 102 102 0 0 52-102 0z m-26 128c-141 0-256-115-256-256 0-141 115-256 256-256 141 0 256 115 256 256 0 141-115 256-256 256z m0-461c-113 0-205 92-205 205 0 113 92 205 205 205 113 0 205-92 205-205 0-113-92-205-205-205z"/>
<glyph glyph-name="add3-ie" unicode="&#102;" d="M256 512c-141 0-256-115-256-256 0-141 115-256 256-256 141 0 256 115 256 256 0 141-115 256-256 256z m128-282l-102 0 0-102-52 0 0 102-102 0 0 52 102 0 0 102 52 0 0-102 102 0z"/>
<glyph glyph-name="add4-ie" unicode="&#103;" d="M254 512c-140 0-254-114-254-254 0-140 114-255 254-255 140 0 255 115 255 255 0 140-115 254-255 254z m0-496c-133 0-241 109-241 242 0 133 108 241 241 241 133 0 242-108 242-241 0-133-109-242-242-242z m141 248l-134 0 0 134c0 4-3 7-7 7-3 0-6-3-6-7l0-134-134 0c-4 0-7-3-7-6 0-4 3-7 7-7l134 0 0-134c0-3 3-6 6-6 4 0 7 3 7 6l0 134 134 0c3 0 6 3 6 7 0 3-3 6-6 6z"/>
<glyph glyph-name="approved1-ie" unicode="&#104;" d="M146 69c-3 1-6 3-8 5l-131 132c-8 8-9 21-2 29 5 6 14 9 23 6 3-1 5-3 7-5l100-100c3-3 6-5 9-6 10-4 20-1 27 6l306 306c4 4 9 6 14 6 6 0 11-2 15-6 6-5 7-14 5-22-1-3-3-5-5-7l-338-339c-6-6-14-8-22-5"/>
<glyph glyph-name="approved2-ie" unicode="&#105;" d="M523 414l-359-358-164 164 42 42 122-122 317 316z"/>
<glyph glyph-name="approved3-ie" unicode="&#106;" d="M490 398l-317-318-145 146 37 37 108-108 280 280z m-467 111l-14-14-6 5-2-2 8-7 16 16z"/>
<glyph glyph-name="archive1-ie" unicode="&#107;" d="M502 229l-79 209c-7 19-24 31-44 31l-255 0c-20 0-37-12-44-31l-79-209c-1-1-1-2-1-4l0-134c0-13 5-25 14-34 8-9 20-14 33-14l408 0c13 0 25 5 34 14 9 9 14 21 14 34l0 134c0 2 0 3-1 4z m-46-167l-408 0c-16 0-29 13-29 29l0 124 140 0c2-9 9-26 23-41 18-20 41-30 70-30 28 0 51 10 69 30 14 15 21 32 23 41l140 0 0-124c0-16-13-29-28-29z m-129 164l0 0c-2-11-17-63-75-63-59 0-74 52-76 63l0 0c-1 5-5 8-10 8l-51 0 0 76 280 0 0-76-58 0c-5 0-9-3-10-8z m29 160l0-57-209 0 0 57z m58-152l0 89c0 1 0 3-2 5-1 1-4 1-6 1 0 0-1 0-1 0l-29 0 0 70c0 2 0 4-2 5-2 2-4 2-6 2 0 0-1 0-1 0l-231 0c0 0-1 0-1 0-2 0-4 0-6-2-1-1-2-3-2-5l0-70-22 0c-1 0-1 0-2 0-2 0-4 0-6-1-1-2-2-4-2-5l0-89-72 0 75 197c4 11 14 19 26 19l255 0c12 0 22-8 26-19l75-197z"/>
<glyph glyph-name="archive2-ie" unicode="&#108;" d="M499 449l-40 47c-7 10-19 16-32 16l-342 0c-13 0-25-6-33-16l-39-47c-8-10-13-23-13-37l0-355c0-31 26-57 57-57l398 0c31 0 57 26 57 57l0 355c0 14-5 27-13 37m-407 6l328 0 23-27-374 0z m-35-85l398 0 0-313-398 0z m240-57l-82 0 0-85-73 0 114-114 114 114-73 0 0 85z"/>
<glyph glyph-name="archive3-ie" unicode="&#109;" d="M60 455l23 29 342 0 26-29m-195-355l-156 156 99 0 0 57 114 0 0-57 99 0-156-156m243 349l-40 47c-7 10-19 16-32 16l-342 0c-13 0-25-6-33-16l-39-47c-8-10-13-22-13-37l0-355c0-32 25-57 57-57l398 0c32 0 57 25 57 57l0 355c0 15-5 27-13 37"/>
<glyph glyph-name="archive4-ie" unicode="&#110;" d="M28 0l456 0 0 370-456 0z m143 270c0 8 6 14 14 14l142 0c8 0 14-6 14-14l0-42-170 0z m-171 242l512 0 0-114-512 0z"/>
<glyph glyph-name="archive5-ie" unicode="&#111;" d="M460 460l-143 0 0 18c0 19-15 34-34 34l-69 0c-19 0-35-15-35-34l0-18-140 0c-6 0-11-5-11-10 0-6 5-10 11-10l33 0 0-383c0-37 30-68 67-68l220 0c37 0 67 31 67 68l0 383 34 0c5 0 10 4 10 10 0 5-5 10-10 10z m-261 18c0 7 7 14 15 14l69 0c8 0 14-7 14-14l0-18-98 0z m207-421c0-26-21-47-47-47l-220 0c-26 0-47 21-47 47l0 383 314 0z m-157 7c6 0 10 5 10 10l0 302c0 5-4 10-10 10-5 0-10-5-10-10l0-302c0-5 5-10 10-10z m-83 0c5 0 10 5 10 10l0 302c0 5-5 10-10 10-6 0-11-5-11-10l0-302c0-5 5-10 11-10z m167 0c5 0 10 5 10 10l0 302c0 5-5 10-10 10-6 0-11-5-11-10l0-302c0-5 5-10 11-10z"/>
<glyph glyph-name="arrow-red-left" unicode="&#112;" d="M424 507l-373-215c-23-13-23-46 0-60l373-215c23-13 52 3 52 30l0 431c0 26-29 43-52 29z"/>
<glyph glyph-name="arrow-black-up" unicode="&#113;" d="M495 88l-215 373c-14 23-47 23-60 0l-215-373c-14-23 3-52 30-52l430 0c27 0 43 29 30 52z"/>
<glyph glyph-name="arrow-red-right" unicode="&#114;" d="M459 292l-373 215c-23 14-52-3-52-29l0-431c0-27 29-43 52-30l373 215c23 14 23 47 0 60z"/>
<glyph glyph-name="arrow-black-down" unicode="&#115;" d="M465 478l-431 0c-26 0-43-29-29-52l215-373c13-23 46-23 60 0l215 373c13 23-3 52-30 52z"/>
<glyph glyph-name="arrow5-ie" unicode="&#116;" d="M346 7l-195 255 190 250 20-15-179-235 184-240z"/>
<glyph glyph-name="arrow6-ie" unicode="&#117;" d="M505 166l-255 195-250-190 15-20 235 179 240-184z"/>
<glyph glyph-name="arrow7-ie" unicode="&#118;" d="M171 7l195 255-191 250-20-15 179-235-183-240z"/>
<glyph glyph-name="arrow8-ie" unicode="&#119;" d="M0 341l255-195 250 191-15 20-235-179-240 183z"/>
<glyph glyph-name="attatchments1-ie" unicode="&#120;" d="M149 270c0 54 1 107 0 161 0 40 31 75 69 80 44 6 84-23 92-66 1-4 1-9 1-13 0-98 0-197 0-295 0-18-6-33-21-43-15-10-31-10-47-2-15 8-24 22-24 40 0 51 0 102 0 153 0 6 4 10 8 11 6 1 11-1 12-6 1-2 2-5 2-8 0-49 0-98 0-146 0-8 1-15 6-21 7-7 18-9 27-5 9 3 15 12 15 22 0 89 0 177 0 266 0 13 0 25 0 38-1 27-24 50-50 54-33 4-61-19-67-47-1-4-1-9-1-14 0-106 0-211 0-317 0-45 30-82 75-89 47-8 92 24 101 71 1 7 1 13 2 20 0 105 0 210 0 314 0 3 0 5 0 7 1 5 7 8 11 7 5 0 9-4 10-9 0-2 0-3 0-4 0-106 0-212 0-318 0-23-6-43-19-62-17-27-42-42-73-47-58-11-114 28-126 85-2 7-2 14-2 21-1 27-1 54-1 81 0 27 0 54 0 81"/>
<glyph glyph-name="attatchments2-ie" unicode="&#121;" d="M349 396l0-268c0-51-42-93-93-93-51 0-93 42-93 93l0 291c0 32 26 58 58 58 32 0 58-26 58-58l0-244c0-13-10-24-23-24-13 0-23 11-23 24l0 221-35 0 0-221c0-33 26-59 58-59 32 0 58 26 58 59l0 244c0 51-42 93-93 93-51 0-93-42-93-93l0-291c0-71 57-128 128-128 71 0 128 57 128 128l0 268z"/>
<glyph glyph-name="attatchments3-ie" unicode="&#122;" d="M509 166c-6 25-17 47-36 66-87 87-175 175-262 262-1 1-2 2-3 3-5 4-11 4-16 0-4-3-6-10-3-15 1-2 3-4 5-6 86-86 173-173 259-259 5-6 10-12 15-18 31-46 20-109-25-142-43-30-98-25-135 12-87 87-174 174-261 261-4 4-8 8-11 13-18 28-14 69 17 93 24 19 63 18 85-3 11-10 22-21 32-31 73-73 146-146 219-219 8-9 10-20 6-31-5-11-15-17-27-17-9 0-16 5-22 11-40 40-80 80-121 120-2 3-5 5-7 7-6 2-12-1-15-6-3-5-2-11 3-16 42-42 83-84 126-126 14-15 32-19 52-13 20 6 33 20 37 40 5 21-3 38-18 53-81 81-162 162-243 243-4 4-8 7-12 10-42 29-99 20-130-21-27-36-24-90 10-123 44-44 88-88 132-132 22-22 45-45 67-67 22-22 44-45 67-67 6-5 12-11 19-15 57-38 135-23 174 33 21 30 29 63 22 100z"/>
<glyph glyph-name="availmem1-ie" unicode="&#65;" d="M466 433l-8 0 0 38c0 5-4 9-10 9-5 0-9-4-9-9l0-38-369 0 0 38c0 5-4 9-9 9-5 0-9-4-9-9l0-38-6 0c-25 0-46-20-46-46l0-315c0-25 21-46 46-46l420 0c25 0 46 21 46 46l0 315c0 26-21 46-46 46z m28-361c0-15-13-28-28-28l-420 0c-15 0-28 13-28 28l0 270 476 0z m0 288l-476 0 0 27c0 16 13 28 28 28l6 0 0-29c0-5 4-9 9-9 5 0 9 4 9 9l0 29 369 0 0-29c0-5 4-9 9-9 6 0 10 4 10 9l0 29 8 0c15 0 28-12 28-28l0-27z m-310-255c-30 0-43 18-44 35-1 6-5 9-11 9-3 0-6-1-8-3-2-2-2-5-2-8 2-16 8-29 20-38 11-9 27-14 46-14 41 0 67 24 67 61 0 26-11 45-32 54l-3 2 3 1c19 9 28 26 28 49 0 35-25 57-64 57-31 0-55-16-62-41-1-4-1-8-1-12 0-7 4-11 10-11 6 0 10 3 10 9 3 22 18 35 43 35 26 0 42-15 42-39 0-18-7-40-42-40l-10 0c-5 0-9-4-9-9 0-4 4-8 9-8l10 0c33 0 45-24 45-44 0-29-16-45-45-45z m115 3c-5 0-9-4-9-9 0-6 4-10 9-10l87 0c6 0 9 4 9 10 0 5-4 9-9 9l-32 0 0 189c0 6-4 9-10 9l-45 0c-5 0-9-4-9-10 0-5 4-9 9-9l33 0 0-179z"/>
<glyph glyph-name="availmem2-ie" unicode="&#66;" d="M78 96l0 254 324 0 0-69c18-13 34-28 46-47l0 186c0 25-21 46-46 46l-23 0 0 46-47 0 0-46-184 0 0 46-47 0 0-46-23 0c-25 0-46-21-46-46l0-324c0-25 21-46 46-46l134 0c-12 13-23 29-30 46z m331 2c10 16 16 36 16 56 0 58-46 104-104 104-58 0-104-46-104-104 0-58 46-104 104-104 20 0 39 6 55 16l72-71 32 32z m-88-2c-32 0-58 26-58 58 0 32 26 58 58 58 32 0 58-26 58-58 0-32-26-58-58-58z"/>
<glyph glyph-name="availmem3-ie" unicode="&#67;" d="M182 225c5 17 12 34 21 49-68 0-203-34-203-102l0-76 203 0c-9 15-16 31-21 48l-134 0 0 28c0 15 66 47 134 53z m122 175c0 56-45 102-101 102-56 0-102-46-102-102 0-56 46-101 102-101l23 3c16 16 36 29 57 37 13 17 21 38 21 61z m-101-53c-30 0-53 24-53 53 0 30 23 54 53 54 29 0 53-24 53-54 0-29-24-53-53-53z m236-223c11 18 17 39 17 61 0 63-50 114-114 114-63 0-114-51-114-114 0-63 51-114 114-114 22 0 43 6 61 17l79-78 35 35z m-97-2c-35 0-63 28-63 63 0 35 28 63 63 63 35 0 64-28 64-63 0-35-29-63-64-63z"/>
<glyph glyph-name="availmem4-ie" unicode="&#68;" d="M304 400c0 56-45 102-101 102-56 0-102-46-102-102 0-56 46-101 102-101l23 2c16 17 36 30 57 38 13 17 21 38 21 61z m-114-152c-106-3-190-47-190-101l0-51 203 0c-16 26-26 56-26 89 0 22 5 43 13 63z m249-124c11 18 17 39 17 61 0 63-50 114-114 114-63 0-114-51-114-114 0-63 51-114 114-114 22 0 43 6 61 17l79-78 35 35z m-97-2c-35 0-63 28-63 63 0 35 28 63 63 63 35 0 64-28 64-63 0-35-29-63-64-63z"/>
<glyph glyph-name="back1-ie" unicode="&#69;" d="M509 266l-468 0 209 169c5 4 6 11 2 15-4 5-11 6-15 2l-233-188 0 0c-1-1-1-1-2-1l0 0 0-1c0 0-1 0-1-1 0 0 0 0 0 0 0-1 0-2-1-2l0 0c0-1 0-2 0-2l0-2c0-1 0-1 0-2 0 0 0 0 0 0l0-1c1 0 1 0 1-1l0 0c0-1 1-1 1-1 0-1 0-1 0-1 1 0 1-1 2-1l0 0 233-188c2-2 4-2 7-2 3 0 6 1 8 4 4 4 3 11-2 15l-209 169 468 0c6 0 11 4 11 10 0 6-5 10-11 10"/>
<glyph glyph-name="back2-ie" unicode="&#70;" d="M512 288l0-64-388 0 178-178-46-46-256 256 256 256 46-46-178-178z"/>
<glyph glyph-name="back3-ie" unicode="&#71;" d="M517 354l0-196-261 0 0-158-256 256 256 256 0-158z"/>
<glyph glyph-name="block1-ie" unicode="&#72;" d="M255 512c-141 0-255-114-255-255 0-140 114-254 255-254 140 0 254 114 254 254 0 141-114 255-254 255z m-170-367c-27 40-40 91-31 145 13 86 82 155 168 169 54 8 105-5 145-32 7-4 8-14 2-20l-264-264c-6-6-15-5-20 2z m203-89c-55-8-105 5-146 32-7 4-7 14-2 19l265 265c5 5 15 4 19-2 27-41 40-91 32-146-14-85-83-154-168-168z"/>
<glyph glyph-name="call1-ie" unicode="&#73;" d="M36 30c19-19 45-30 73-30 128 0 403 275 403 403 0 28-11 54-30 74-24 23-47 35-71 35-31 0-56-20-79-42-23-22-42-52-42-67 0-19 9-33 17-44 15-23 29-43-41-112-37-37-63-55-83-55-11 0-19 6-29 13-12 8-26 17-45 17-15 0-44-18-67-42-26-28-76-80-6-150m20 138c22 23 46 36 53 36 14 0 24-7 35-14 11-8 23-16 39-16 25 0 54 18 95 59 75 75 66 103 44 135-7 11-14 21-14 35 0 7 12 31 36 53 19 18 41 38 67 38 19 0 37-10 58-31 16-16 25-37 25-60 0-54-58-146-149-236-90-91-183-149-236-149-23 0-45 9-61 25-53 53-26 89 8 125"/>
<glyph glyph-name="call2-ie" unicode="&#74;" d="M101 455c1-25 6-50 13-74l-35-34c-11 34-19 71-21 108l43 0m280-342c24-7 49-11 74-13l0-42c-37 3-74 10-108 21l34 34m-253 399l-100 0c-15 0-28-13-28-28 0-268 216-484 484-484 15 0 28 13 28 28l0 100c0 15-13 28-28 28-36 0-70 6-102 16-3 2-6 2-9 2-7 0-14-3-20-8l-63-63c-80 41-146 107-187 187l63 63c8 8 10 19 7 29-11 32-17 66-17 102 0 15-12 28-28 28"/>
<glyph glyph-name="call3-ie" unicode="&#75;" d="M103 290c41-80 107-146 187-187l63 63c8 7 19 10 29 7 32-11 66-17 102-17 15 0 28-12 28-28l0-100c0-15-13-28-28-28-267 0-484 216-484 484 0 15 13 28 28 28l100 0c16 0 29-13 29-28 0-36 5-70 16-102 3-10 1-21-7-29z"/>
<glyph glyph-name="checkbox1-ie" unicode="&#76;" d="M420 512l-328 0c-51 0-92-41-92-92l0-328c0-51 41-92 92-92l328 0c51 0 92 41 92 92l0 328c0 51-41 92-92 92z m64-402c0-46-36-82-81-82l-293 0c-46 0-82 36-82 82l0 292c0 46 36 82 82 82l293 0c45 0 81-36 81-82z"/>
<glyph glyph-name="checkbox2-ie" unicode="&#77;" d="M420 512l-328 0c-51 0-92-41-92-92l0-328c0-51 41-92 92-92l328 0c51 0 92 41 92 92l0 328c0 51-41 92-92 92z m-231-394l-116 116 23 22 93-93 236 237 23-22z"/>
<glyph glyph-name="circle1-ie" unicode="&#78;" d="M519 253c0-144-116-260-259-260-144 0-260 116-260 260 0 143 116 259 260 259 143 0 259-116 259-259"/>
<glyph glyph-name="close1-ie" unicode="&#79;" d="M437 437c-100 100-262 100-362 0-100-100-100-262 0-362 100-100 262-100 362 0 100 100 100 262 0 362m-14-347c-45-45-104-69-167-69-63 0-122 24-167 69-44 44-69 103-69 166 0 63 25 122 69 167 45 44 104 69 167 69 63 0 122-25 167-69 44-45 68-104 68-167 0-63-24-122-68-166m-60 263c0 3-2 5-4 7-2 3-4 4-7 4-3 0-6-1-8-4l-88-88-89 88c-2 2-5 4-8 4-3 0-5-2-7-4-2-2-4-4-4-7 0-3 2-6 4-8l88-89-88-88c-2-2-4-5-4-8 0-3 2-6 4-8 2-2 4-3 7-3 3 0 6 1 8 3l89 89 88-89c2-2 5-3 8-3 3 0 6 1 8 3 4 5 4 12 0 16l-89 88 89 89c2 2 3 5 3 8"/>
<glyph glyph-name="close2-ie" unicode="&#80;" d="M322 358l-66-66-66 66-36-36 66-66-66-66 36-36 66 66 66-66 36 36-66 66 66 66z m-66 154c-142 0-256-114-256-256 0-142 114-256 256-256 142 0 256 114 256 256 0 142-114 256-256 256z m0-461c-113 0-205 92-205 205 0 113 92 205 205 205 113 0 205-92 205-205 0-113-92-205-205-205z"/>
<glyph glyph-name="close3-ie" unicode="&#81;" d="M256 512c-142 0-256-114-256-256 0-142 114-256 256-256 142 0 256 114 256 256 0 142-114 256-256 256z m128-348l-36-36-92 92-92-92-36 36 92 92-92 92 36 36 92-92 92 92 36-36-92-92z"/>
<glyph glyph-name="document1-ie" unicode="&#82;" d="M408 512l-200 0c-2 0-3 0-4-1 0 0 0 0 0 0-2 0-3-1-4-2 0 0 0 0 0 0l-133-131c0 0 0 0 0 0 0 0-1-1-1-1 0 0 0 0 0-1-1-1-2-2-2-3 0-1 0-2 0-2l0-325c0-26 21-46 46-46l298 0c25 0 45 20 45 46l0 420c0 25-20 46-45 46z m-211-36l0-95-97 0z m235-430c0-14-11-25-24-25l-298 0c-14 0-25 11-25 25l0 314 123 0c6 0 10 5 10 11l0 120 190 0c13 0 24-11 24-25z m-122 221c-15 10-33 16-51 16-19 0-37-6-52-16-15-10-27-24-35-40 0-1 0-1 0-2l0 0c8-17 20-30 35-40 15-10 33-16 52-16 18 0 36 6 51 16 15 10 27 24 35 40 0 0 0 0 0 0 0 0 0 1 0 2-8 16-19 30-35 40z m28-37c1-3 1-5 0-8-16-29-46-47-79-47-34 0-64 18-80 48-1 2-1 4 0 6 16 30 46 48 80 48 33 0 63-18 79-47z m-102-4c0-12 10-22 23-22 12 0 22 10 22 22 0 13-10 23-22 23-13 0-23-10-23-23z m23 18c9 0 17-8 17-18 0-9-8-17-17-17-10 0-18 8-18 17 0 10 8 18 18 18z"/>
<glyph glyph-name="document2-ie" unicode="&#83;" d="M453 372c0 1 0 2-1 3 0 1-1 2-2 3 0 0 0 0 0 0l-133 131c-1 1-1 1-2 1 0 1-1 1-2 1 0 1-1 1-2 1-1 0-1 0-2 0 0 0 0 0 0 0l-199 0c-25 0-46-20-46-46l0-420c0-26 21-46 46-46l298 0c25 0 45 20 45 46l0 325c0 0 0 0 0 1z m-133 104l97-95-97 0z m112-430c0-14-11-25-24-25l-298 0c-14 0-25 11-25 25l0 420c0 14 11 25 25 25l189 0 0-120c0-6 5-11 10-11l123 0z m-315 240c0-6 5-11 11-11l204 0c6 0 11 5 11 11 0 6-5 10-11 10l-204 0c-6 0-11-4-11-10z m215-28l-204 0c-6 0-11-4-11-10 0-6 5-11 11-11l204 0c6 0 11 5 11 11 0 6-5 10-11 10z m0-37l-204 0c-6 0-11-5-11-11 0-6 5-10 11-10l204 0c6 0 11 4 11 10 0 6-5 11-11 11z m0-112l-204 0c-6 0-11-5-11-10 0-6 5-11 11-11l204 0c6 0 11 5 11 11 0 5-5 10-11 10z m0 38l-204 0c-6 0-11-5-11-11 0-6 5-10 11-10l204 0c6 0 11 4 11 10 0 6-5 11-11 11z m0 36l-204 0c-6 0-11-5-11-11 0-5 5-10 11-10l204 0c6 0 11 5 11 10 0 6-5 11-11 11z"/>
<glyph glyph-name="document3-ie" unicode="&#84;" d="M158 154l128 0 0-52-128 0z m154 358l-205 0c-28 0-51-23-51-51l0-410c0-28 23-51 51-51l307 0c28 0 51 23 51 51l0 307z m102-461l-307 0 0 410 179 0 0-128 128 0 0-282z m-256 205l205 0 0-51-205 0z"/>
<glyph glyph-name="document4-ie" unicode="&#85;" d="M149 184c0-61 49-110 110-110 62 0 111 49 111 110 0 62-49 111-111 111-61 0-110-49-110-111z m193 35l-96-97-63 62 20 20 43-43 77 78z m-30 293l-205 0c-28 0-51-23-51-51l0-410c0-28 23-51 51-51l307 0c28 0 51 23 51 51l0 307z m102-461l-307 0 0 410 179 0 0-128 128 0 0-282z"/>
<glyph glyph-name="document5-ie" unicode="&#86;" d="M309 512l-204 0c-29 0-52-23-52-51l0-410c0-28 23-51 52-51l307 0c28 0 51 23 51 51l0 307z m26-410l-230 0 0 52 230 0z m77 103l-307 0 0 51 307 0z m-128 128l0 141 141-141z"/>
<glyph glyph-name="document6-ie" unicode="&#87;" d="M286 333l141 0-141 141 0-141m-179 179l205 0 153-154 0-307c0-28-23-51-51-51l-307 0c-29 0-51 23-51 51l0 410c0 28 22 51 51 51m114-421l121 121-30 36-91-91-41 40-30-30z"/>
<glyph glyph-name="download1-ie" unicode="&#88;" d="M242 127c0 0 0 0 0 0 1-1 3-3 5-3 2-1 4-2 6-2 2 0 5 1 7 2 2 0 3 2 5 3 0 0 0 0 0 0l105 105c6 7 6 17 0 23-6 7-17 7-23 0l-77-77 0 308c0 9-8 17-17 17-9 0-16-8-16-17l0-308-77 77c-7 7-17 7-23 0-7-6-7-16 0-23z m248 146c-9 0-16-7-16-16l0-131c0-1-1-77-64-77l-313 0c-64 0-64 76-64 77l0 131c0 9-8 16-17 16-9 0-16-7-16-16l0-131c0-44 26-109 97-109l313 0c71 0 97 65 97 109l0 131c0 9-8 16-17 16z"/>
<glyph glyph-name="download2-ie" unicode="&#89;" d="M422 290l-140-141 0 363-52 0 0-363-140 141-37-36 203-203 203 203z m-166-239l-256 0 0-51 512 0 0 51z"/>
<glyph glyph-name="download3-ie" unicode="&#90;" d="M464 331l-120 0 0 181-181 0 0-181-120 0 211-211z m-421-271l421 0 0-60-421 0z"/>
<glyph glyph-name="edit1-ie" unicode="&#48;" d="M490 490c-29 29-77 29-106 0l-212-212-13-49 1 0c-1-1-1-3-2-4l-17-64c-2-6 0-12 4-16 3-3 8-5 12-5 1 0 3 1 4 1l64 17c1 1 3 1 4 2l0-1 49 13 212 212c14 14 22 33 22 53 0 20-8 39-22 53z m-257-304c-4 10-11 21-18 29-8 7-19 14-29 18l7 26c11-1 31-5 46-20 15-15 19-35 20-46z m239 216l-190-191c-4 14-11 31-25 46-15 14-32 21-46 25l191 191c19 19 51 19 70 0 10-10 15-23 15-36 0-13-5-26-15-35z m-72-131c-6 0-12-6-12-12l0-188c0-25-21-46-46-46l-271 0c-26 0-46 21-46 46l0 271c0 25 21 46 46 46l188 0c6 0 12 6 12 12 0 7-6 13-12 13l-188 0c-39 0-71-32-71-71l0-271c0-39 32-71 71-71l271 0c39 0 71 32 71 71l0 188c0 6-6 12-13 12z"/>
<glyph glyph-name="edit2-ie" unicode="&#49;" d="M481 417c7 7 7 18 0 25l-39 39c-4 4-8 5-12 5-5 0-9-1-13-5l-31-31 64-64z m-20-161c0-113-92-205-205-205-113 0-205 92-205 205 0 113 92 205 205 205l0 51c-141 0-256-115-256-256 0-141 115-256 256-256 141 0 256 115 256 256z m-282-77l64 0 189 189-64 64-189-189z"/>
<glyph glyph-name="edit3-ie" unicode="&#50;" d="M478 407c7 7 7 20 0 27l-44 44c-4 4-9 6-14 6-4 0-10-2-13-6l-35-34 71-72z m-336-265l71 0 210 210-71 71-210-210z m313 114l0-199-398 0 0 398 199 0 0 57-199 0c-32 0-57-25-57-57l0-398c0-31 25-57 57-57l398 0c32 0 57 26 57 57l0 199z"/>
<glyph glyph-name="edit4-ie" unicode="&#51;" d="M461 256c0-113-92-205-205-205-113 0-205 92-205 205 0 113 92 205 205 205l0 51c-141 0-256-115-256-256 0-141 115-256 256-256 141 0 256 115 256 256z m20 161c7 7 7 18 0 25l-39 39c-4 4-8 5-12 5-5 0-9-1-13-5l-31-31 64-64z m-302-238l64 0 189 189-64 64-189-189z"/>
<glyph glyph-name="edit5-ie" unicode="&#52;" d="M478 407c7 7 7 20 0 27l-44 44c-4 4-9 6-14 6-4 0-10-2-13-6l-35-35 71-71z m-336-265l71 0 210 210-71 71-210-210z m313 114l0-199-398 0 0 398 199 0 0 57-199 0c-32 0-57-25-57-57l0-398c0-31 25-57 57-57l398 0c31 0 57 26 57 57l0 199z"/>
<glyph glyph-name="edit6-ie" unicode="&#53;" d="M483 483c-39 39-103 39-142 0l-303-303-17-66-20-73c-2-10 0-20 6-28 6-8 15-13 25-13 3 0 6 0 9 1l70 19 0 0 69 18 303 304c19 18 29 43 29 70 0 27-10 52-29 71z m-369-442c-5 12-16 33-28 45-12 12-33 23-45 28l14 51c14-1 50-5 78-32 27-28 31-64 32-78z m355 314l-286-285c-3 20-11 51-36 77-26 25-57 33-77 36l285 286c32 31 83 31 114 0 15-15 23-35 23-57 0-21-8-41-23-57z"/>
<glyph glyph-name="envelope1-ie" unicode="&#54;" d="M461 461l-410 0c-28 0-51-23-51-51l0-308c0-28 23-51 51-51l410 0c28 0 51 23 51 51l0 308c0 28-23 51-51 51m-16-112l-171-108c-11-6-25-6-36 0l-171 108c-10 6-16 16-16 28l0 33 187-117c11-7 25-7 36 0l187 117 0-33c0-12-6-22-16-28"/>
<glyph glyph-name="export1-ie" unicode="&#55;" d="M473 345l0 83c0 22-20 41-41 41-32 0-63 0-95 0-2 0-4 0-7 0-6-1-13-4-18-8-13-9-26-22-39-33l-192 0c-23 0-42-20-42-41 0-14 0-28 0-42-22-1-40-22-39-44 5-76 11-151 16-227 2-22 21-39 42-39 132 0 264-1 397 0 21 1 39 18 41 39 5 76 11 151 16 227 1 23-17 43-39 44z m-413 41c0 11 10 20 20 21 66 0 131 0 197 0 0 0 1 0 2 0 2 0 3 1 5 2l32 28c4 3 7 6 12 9 3 2 7 2 11 2 30 0 61 0 92 0 11 0 20-10 21-20 0-28 0-55 0-82-131 0-261 0-392 0z m414-311c-1-10-10-18-20-18-132-2-264-2-396 0-11 0-19 8-20 18-7 76-11 152-17 228 0 11 10 21 21 21l420 0 0 0 8 0c12 0 21-10 20-21-4-76-10-152-16-228z"/>
<glyph glyph-name="fillshift1-ie" unicode="&#56;" d="M309 478l20 15c2 2 4 4 4 7 0 3 0 6-2 8-4 5-11 5-15 2l-42-32c-2-2-4-5-4-8 0-3 1-6 3-8l35-39c2-2 5-4 8-4 2 0 5 1 7 3 2 2 3 5 4 8 0 2-1 5-3 7l-17 19c96-16 169-100 169-200 0-112-91-203-203-203-6 0-11-5-11-11 0-6 5-11 11-11 124 0 225 101 225 225 0 111-81 204-189 222z m-74 3c-124 0-224-101-224-225 0-111 81-204 188-222l-20-15c-2-2-3-4-4-7 0-3 1-6 3-8 2-3 5-4 8-4 2 0 5 1 7 2l41 32c2 2 4 5 4 8 1 3 0 6-2 8l-35 39c-4 5-11 5-16 1-2-2-3-5-3-7 0-3 1-6 3-8l17-19c-97 16-170 100-170 200 0 112 91 203 203 203 6 0 11 5 11 11 0 6-5 11-11 11z"/>
<glyph glyph-name="fillshift2-ie" unicode="&#57;" d="M397 250c-64-1-115-55-115-122 1-66 53-119 117-119 64 1 116 55 115 121-1 67-53 120-117 120z m0-37c20 1 35-15 35-35 1-20-15-36-34-37-19 0-35 16-35 36 0 20 15 36 34 36z m2-170c-29-1-55 15-70 38 0 24 46 37 69 37 23 1 70-12 70-36-15-23-40-39-69-39z m-157 40l-196-1 0 230 321 0 2-28c24-3 28-6 44-11l0 131c0 25-20 46-46 46l-23 0 0 45-46 0 0-45-183 0 0 45-46 0 0-45-23 0c-25 0-46-21-46-46l0-322c0-25 20-46 46-46l243 1c-19 15-36 35-47 46z m-196 321l321 0 0-46-321 0z m195-184l0 73-24-24c-16 15-37 24-60 24-46 0-84-37-84-83 0-47 38-84 84-84 39 0 72 26 81 63l-21 0c-9-25-32-42-60-42-34 0-63 28-63 63 0 34 29 62 63 62 18 0 33-7 45-18l-34-34z"/>
<glyph glyph-name="fillshift3-ie" unicode="&#33;" d="M366 289c-78 0-142-63-142-142 0-78 64-142 142-142 79 0 143 64 143 142 0 79-64 142-143 142z m0-256c-26 0-50 9-70 25 6 13 44 25 70 25 27 0 64-12 71-25-20-16-44-25-71-25z m91 45c-20 25-70 34-91 34-20 0-70-9-90-34-15 19-24 43-24 69 0 63 52 114 114 114 63 0 114-51 114-114 0-26-9-50-23-69z m-91 155c-27 0-49-23-49-50 0-28 22-50 49-50 28 0 50 22 50 50 0 27-22 50-50 50z m0-72c-11 0-21 10-21 22 0 12 10 21 21 21 12 0 22-9 22-21 0-12-10-22-22-22z m-9 162c21 0 41-5 59-12l0 15 0 93c0 26-18 46-44 46l-23 0 0 47-47 0 0-46-186 0 0 46-46 0 0-46-24 0c-25 0-46-21-46-47l0-326c0-25 21-46 46-46l182 0c-24 29-39 67-39 108 0 92 75 168 168 168z m-311 50l0 46 326 0 0-46z m134-104l-47 0 0-48-24 0 0 48-47 0 0 23 47 0 0 47 24 0 0-47 47 0z"/>
<glyph glyph-name="flag1-ie" unicode="&#34;" d="M295 468l-14 27c-5 11-15 17-27 17l-192 0c-16 0-30-14-30-30l0-452c0-17 14-30 30-30 17 0 30 13 30 30l0 151c0 16 14 30 30 30l102 0c12 0 22-7 27-17l14-27c5-10 15-16 27-16l162 0c16 0 30 13 30 30l0 241c0 16-14 30-30 30l-132 0c-12 0-22 6-27 16m98-257l-71 0c-12 0-22 6-27 16l-14 27c-5 11-15 17-27 17l-132 0c-16 0-30 14-30 30l0 121c0 16 14 30 30 30l102 0c12 0 22-7 27-17l5-10c11-21 31-33 54-33l83 0c17 0 31-14 31-31l0-120c0-17-14-30-31-30"/>
<glyph glyph-name="flag2-ie" unicode="&#35;" d="M353 436c-58 0-105 35-176 35-29 0-55-5-79-15 4 31-20 57-51 56-25-1-46-21-47-46-1-23 13-43 33-50l0-416c0-7 5-13 12-13l8 0c7 0 13 6 13 13l0 124c32 15 73 30 139 30 58 0 104-35 176-35 52 0 94 17 133 44 7 4 11 12 11 20l0 268c0 18-19 30-35 22-38-17-89-37-137-37m-304 47c11 0 21-9 21-20 0-12-10-21-21-21-11 0-20 9-20 21 0 11 9 20 20 20m443-296c-24-17-66-36-111-36-66 0-111 36-176 36-48 0-105-11-139-27l0 243c23 17 66 35 111 35 65 0 111-35 176-35 47 0 105 19 139 35z"/>
<glyph glyph-name="history1-ie" unicode="&#36;" d="M440 430c-46 46-108 71-173 71-50 0-97-14-138-42-34-23-60-54-79-90l-23 81c-1 4-4 7-7 8-3 2-7 3-10 2-7-2-12-10-9-17l31-109c1-4 3-7 7-8 2-1 4-2 6-2 1 0 3 0 4 1l107 39c7 3 10 11 8 18-2 3-4 6-7 7-4 2-7 2-11 1l-74-28c38 71 113 116 195 116 122 0 222-100 222-222 0-122-100-222-222-222-93 0-176 58-208 145-2 3-4 5-6 6-3 2-6 2-9 1-3-1-6-4-7-6-1-3-1-6 0-9 17-47 48-86 88-115 42-30 91-45 142-45 65 0 127 25 173 72 47 46 72 108 72 173 0 66-25 127-72 174z m-189-51c-6 0-12-5-12-11l0-123c0-2 1-5 3-7l88-101c2-3 5-4 9-4 3 0 5 1 7 3 5 4 6 11 2 16l-85 98 0 118c0 6-5 11-12 11z"/>
<glyph glyph-name="history2-ie" unicode="&#37;" d="M268 354l0-122 105-62 17 29-85 51 0 104z m25 121c-122 0-220-98-220-219l-73 0 97-98 98 98-73 0c0 94 76 171 171 171 94 0 170-77 170-171 0-94-76-171-170-171-47 0-90 20-121 51l-34-35c39-40 94-64 155-64 121 0 219 98 219 219 0 121-98 219-219 219z"/>
<glyph glyph-name="history3-ie" unicode="&#38;" d="M256 512c-141 0-256-115-256-256 0-141 115-256 256-256 141 0 256 115 256 256 0 141-115 256-256 256z m5-436c-50 0-94 20-127 53l28 28c26-25 61-41 99-41 77 0 140 63 140 140 0 77-63 140-140 140-77 0-140-63-140-140l60 0-81-81-79 81 60 0c0 99 81 180 180 180 100 0 180-81 180-180 0-99-80-180-180-180z m80 133l-14-24-86 51 0 100 30 0 0-85z"/>
<glyph glyph-name="imail1-ie" unicode="&#39;" d="M519 504l0 0c0 0 0 1 0 1-1 0-1 1-1 1l0 0c0 1 0 1-1 1l0 1c0 0-1 0-1 1l0 0c-1 1-1 1-2 1 0 1-1 1-1 1l-1 0c0 0-1 1-1 1l0 0c-1 0-1 0-2 0l-2 0c-1 0-1 0-2 0l0 0c-1-1-1-1-1-1l-497-200c-4-2-7-6-7-10 0-4 2-8 5-11l179-114 118-171c2-3 6-5 9-5l2 0c4 0 7 3 9 7l197 489 0 0c0 1 0 2 0 2 0 1 0 2 0 2l0 2c0 1 0 1 0 2z m-482-206l422 170-268-268z m271-261l-100 147 267 268z"/>
<glyph glyph-name="imail2-ie" unicode="&#40;" d="M20 281l121-111 265 235-195-298 120-110 167 515z"/>
<glyph glyph-name="imail3-ie" unicode="&#41;" d="M11 278l126-112 275 238-203-302 126-112 173 522z"/>
<glyph glyph-name="imail4-ie" unicode="&#42;" d="M512 260c0 1 0 1 0 2 0 0 0 1 0 1 0 1-1 1-1 1 0 1 0 1 0 2-1 1-1 1-2 2 0 0 0 1-1 1 0 1-1 1-2 2 0 0-1 0-1 0l-489 208c-4 2-9 1-12-2-3-3-5-7-4-11l46-206-38-202c0-4 1-8 3-10 1 0 1-1 1-1 4-3 8-3 12-2l481 205c1 1 3 2 4 3 0 0 0 0 0 0 1 1 2 2 2 3 0 0 0 0 0 0 1 1 1 1 1 2 0 0 0 1 0 2z m-69 12l-376 0-39 177z m-408-197l32 174 376 0z"/>
<glyph glyph-name="info1-ie" unicode="&#43;" d="M311 98l-16 0c-7 0-13 5-13 12l0 241c0 7-6 12-13 12l-59 0c-7 0-13-5-13-12 0-7 6-13 13-13l25 0c7 0 13-6 13-13l0-214c0-7-6-13-13-13l-19 0c-7 0-13-6-13-13l0-6c0-7 6-13 13-13l95 0c7 0 13 6 13 13l0 6c0 7-6 13-13 13z m-31 322c0-14-11-25-25-25-14 0-25 11-25 25 0 14 11 25 25 25 14 0 25-11 25-25z m157 17c-100 100-262 100-362 0-100-100-100-262 0-362 100-100 262-100 362 0 100 100 100 262 0 362z m-14-348c-45-44-104-69-167-69-63 0-122 25-166 69-45 45-70 104-70 167 1 63 25 122 70 167 44 44 103 69 166 69 63 0 122-25 167-69 44-45 69-104 69-167 0-63-25-122-69-167z"/>
<glyph glyph-name="info2-ie" unicode="&#44;" d="M230 282l52 0 0-154-52 0z m0 102l52 0 0-51-52 0z m26 128c-141 0-256-115-256-256 0-141 115-256 256-256 141 0 256 115 256 256 0 141-115 256-256 256z m0-461c-113 0-205 92-205 205 0 113 92 205 205 205 113 0 205-92 205-205 0-113-92-205-205-205z"/>
<glyph glyph-name="info3-ie" unicode="&#45;" d="M256 512c-141 0-256-115-256-256 0-141 115-256 256-256 141 0 256 115 256 256 0 141-115 256-256 256z m26-384l-52 0 0 154 52 0z m0 205l-52 0 0 51 52 0z"/>
<glyph glyph-name="like1-ie" unicode="&#46;" d="M476 440c-24 25-56 39-90 39-1 0-2 0-2 0-5 1-10 1-14 1-35 0-67-14-91-39l-23-23-22 23c-24 24-56 38-90 38-1 0-1 0-2 0-4 1-9 1-14 1-34 0-67-14-91-39-24-25-37-59-37-94 0-36 13-69 37-94l204-214c2-2 5-3 8-3 3 0 5 1 7 3l1 1 1 0c1-2 4-3 7-3 2 0 5 1 7 2 0 0 0 0 0 1 34 35 170 177 204 213 24 25 37 58 37 94 0 35-13 68-37 93z m-408-173c-42 44-42 116 0 160 18 18 41 29 65 32 26-1 51-12 71-33l37-39c2-2 5-3 8-3 3 0 5 1 8 3l0 1 1-1c2-2 4-3 7-3 3 0 5 1 7 3 0 0 0 0 0 0l38 40c17 18 40 29 64 32 26-1 52-13 71-33 42-44 42-115 0-159l-189-197z"/>
<glyph glyph-name="like2-ie" unicode="&#47;" d="M476 440c-24 25-56 39-90 39-1 0-2 0-2 0-5 1-10 1-14 1-35 0-67-14-91-39l-23-23-22 23c-24 24-56 38-90 38-1 0-1 0-2 0-4 1-9 1-14 1-34 0-67-14-91-39-24-25-37-59-37-94 0-36 13-69 37-94l204-214c2-2 5-3 8-3 3 0 5 1 7 3l1 1 1 0c1-2 4-3 7-3 2 0 5 1 7 2 0 0 0 0 0 1 34 35 170 177 204 213 24 25 37 58 37 94 0 35-13 68-37 93z"/>
<glyph glyph-name="listen1-ie" unicode="&#58;" d="M188 447c-2 1-4 1-6 1-4 0-8-1-11-4l-90-88-65 0c-9 0-16-7-16-16l0-165c0-9 7-16 16-16l65 0 90-87c3-3 7-5 11-5 2 0 5 1 6 2 6 2 10 8 10 14l0 350c0 6-4 12-10 14z m-89-118l67 66 0-275-68 66c-3 3-6 4-11 4l-55 0 0 134 55 0c5 0 8 2 12 5z m171 36c-4 0-7-1-10-3-3-3-5-6-6-10-1-5 0-9 3-12 16-23 25-51 25-79 0-31-10-59-28-83-2-3-4-8-3-12 1-4 3-8 6-10 3-2 6-3 10-3 5 0 9 2 12 6 23 29 35 64 35 102 0 35-11 69-32 97-2 4-7 7-12 7z m85 66c-3 4-8 6-13 6-3 0-6-1-9-3-3-2-6-6-6-10-1-4 0-8 2-12 32-43 48-95 48-148 0-57-18-111-52-156-3-3-4-7-4-11 1-5 3-8 6-11 3-2 7-3 10-3 5 0 10 2 13 6 38 51 59 111 59 175 0 60-19 118-54 167z m73 64c-3 4-7 6-12 6-4 0-7-1-10-3-3-2-5-6-6-10-1-4 0-8 3-12 45-63 68-137 68-215 0-82-26-159-75-224-6-7-4-17 2-23 3-2 7-3 10-3 5 0 10 2 13 6 54 71 82 155 82 244 0 85-26 165-75 234z"/>
<glyph glyph-name="listen2-ie" unicode="&#59;" d="M316 512l0-59c83-25 144-102 144-193 0-91-61-168-144-193l0-59c116 26 201 129 201 252 0 123-85 226-201 252z m72-252c0 51-29 94-72 116l0-232c43 21 72 65 72 116z m-388 86l0-172 115 0 144-144 0 460-144-144z m201 5l0-182-62 62-81 0 0 58 81 0z"/>
<glyph glyph-name="listen3-ie" unicode="&#60;" d="M378 256c0 50-28 92-70 113l0-225c42 20 70 63 70 112z m-70 246l0-58c81-24 140-99 140-188 0-89-59-164-140-188l0-58c112 26 196 126 196 246 0 120-84 220-196 246z m-308-162l0-168 112 0 140-140 0 448-140-140z"/>
<glyph glyph-name="location1-ie" unicode="&#61;" d="M429 339c0 95-78 173-174 173-95 0-173-78-173-173 0-25 5-48 14-69l0 0 1-1c5-12 11-22 19-32l60-105 79-138 80 138 60 105c8 10 14 21 19 32l1 1 0 0c9 21 14 44 14 69z m-174-54c-38 0-69 31-69 69 0 39 31 70 69 70 39 0 70-31 70-70 0-38-31-69-70-69z"/>
<glyph glyph-name="lock1-ie" unicode="&#62;" d="M392 359l-66 0 0 80c0 40-33 73-73 73l-4 0c-40 0-73-33-73-73l0-80-65 0c-22 0-39-17-39-39l0-281c0-21 17-39 39-39l281 0c21 0 39 18 39 39l0 281c0 22-18 39-39 39z m-193 80c0 28 22 50 50 50l4 0c28 0 50-22 50-50l0-80-104 0z m210-400c0-9-8-17-17-17l-281 0c-9 0-17 8-17 17l0 281c0 9 8 17 17 17l281 0c9 0 17-8 17-17z m-133 140c19 14 18 34 17 36-2 33-28 41-42 41-21 0-42-16-42-42-1-18 11-29 17-34l-22-72c-1-2-1-4 1-6 1-2 3-3 5-3l82 0c2 0 4 1 5 3 2 2 2 4 1 6z m-57-66l22 67c1 3-1 7-4 8 0 1-15 8-15 26 1 18 15 29 29 29l0 0c1 0 27 0 29-29 0 0 0 0 0 0 0 0 1-16-16-26-3-1-4-5-3-8l22-67-64 0z"/>
<glyph glyph-name="logout1-ie" unicode="&#63;" d="M391 261l-131 105c-1 1-3 1-4 1-2 0-3 0-5-2-2-3-1-6 1-8l118-95-263 0c-4 0-6-3-6-6 0-3 2-6 6-6l263 0-118-95c-3-2-3-6-1-8 2-3 6-3 9-1l131 105c0 1 0 1 0 1 0 0 0 0 0 0 1 1 0 1 1 1 0 1 0 2 0 3l0 1c1 0 1 1 1 1-1 1-1 1-2 2 0 0 0 0 0 1z m46 176c-100 100-262 100-362 0-100-100-100-262 0-362 100-100 262-100 362 0 100 100 100 262 0 362z m-14-348c-45-44-104-69-167-69-63 0-122 25-166 69-45 45-70 104-70 167 0 63 25 122 69 167 45 44 104 69 167 69 63 0 122-25 167-69 44-45 69-104 69-167-1-63-25-122-69-167z"/>
<glyph glyph-name="logout2-ie" unicode="&#64;" d="M353 117l141 141-141 141-41-40 74-73-273 0 0-56 273 0-74-73z m155 339c0 31-26 56-57 56l-395 0c-31 0-56-25-56-56l0-395c0-31 25-57 56-57l395 0c31 0 57 26 57 57l0 131-57-56 0-75-395 0 0 395 395 0 0-76 57-56z"/>
<glyph glyph-name="logout3-ie" unicode="&#91;" d="M384 256l-128-128 0 77-102 0 0 102 102 0 0 77 128-128m-384 0c0 141 115 256 256 256 141 0 256-115 256-256 0-141-115-256-256-256-141 0-256 115-256 256m51 0c0-113 92-205 205-205 113 0 205 92 205 205 0 113-92 205-205 205-113 0-205-92-205-205"/>
<glyph glyph-name="logout4-ie" unicode="&#93;" d="M354 128l0 77-179 0 0 102 179 0 0 77 128-128-128-128m-51 384c28 0 51-23 51-51l0-51-51 0 0 51-231 0 0-410 231 0 0 51 51 0 0-51c0-28-23-51-51-51l-231 0c-28 0-51 23-51 51l0 410c0 28 23 51 51 51z"/>
<glyph glyph-name="logout5-ie" unicode="&#94;" d="M0 256c0 141 115 256 256 256 141 0 256-115 256-256 0-141-115-256-256-256-141 0-256 115-256 256m384 0l-128 128 0-77-102 0 0-102 102 0 0-77z"/>
<glyph glyph-name="logout6-ie" unicode="&#95;" d="M496 289c-9 64-40 117-92 158-11 8-22 12-33 12-14 0-26-6-35-17-15-20-12-46 8-65l6-6c4-4 8-7 12-11 34-34 49-81 42-128-7-48-35-88-78-110-22-12-46-18-71-18-49 0-96 24-124 65-45 64-33 147 29 202 19 18 37 44 13 72-10 11-21 16-33 16-13 0-27-6-41-18-79-68-107-174-72-272 35-94 126-157 227-157l1 0c71 0 138 31 184 84 46 52 67 123 57 193z m-242-8l1 0c19 0 32 15 33 36 0 18 0 37 0 55l0 24 0 25c0 18 0 36 0 54-1 23-13 37-34 37l0 0c-19-1-31-14-31-36-1-53 0-106 0-158 0-22 12-36 31-37z"/>
<glyph glyph-name="next1-ie" unicode="&#96;" d="M11 266c-6 0-11-4-11-10 0-6 5-10 11-10l468 0-209-169c-5-4-6-11-2-15 2-3 5-4 8-4 3 0 5 0 7 2l233 188 0 0c1 0 1 1 1 1 1 0 1 0 1 1 0 0 1 0 1 1l0 0c0 1 0 1 1 1l0 1c0 0 0 0 0 0 0 1 0 1 0 2l0 2c0 0 0 1 0 2l0 0c-1 0-1 1-1 2 0 0 0 0 0 0 0 1-1 1-1 1l0 1-1 0c0 0 0 0-1 1l0 0-233 188c-4 4-11 3-15-2-4-4-3-11 2-15l209-169-468 0"/>
<glyph glyph-name="next2-ie" unicode="&#123;" d="M388 288l-178 178 46 46 256-256-256-256-46 46 178 178-388 0 0 64z"/>
<glyph glyph-name="next3-ie" unicode="&#124;" d="M261 354l0 158 256-256-256-256 0 158-261 0 0 196z"/>
<glyph glyph-name="notes1-ie" unicode="&#125;" d="M381 474l-27 0 0 27c0 6-5 11-11 11-6 0-11-5-11-11l0-27-69 0 0 27c0 6-6 11-12 11-6 0-11-5-11-11l0-27-69 0 0 27c0 6-5 11-12 11-6 0-11-5-11-11l0-27-27 0c-31 0-57-26-57-58l0-359c0-31 26-57 57-57l260 0c32 0 57 26 57 57l0 359c0 32-25 58-57 58z m35-417c0-19-16-34-35-34l-260 0c-19 0-34 15-34 34l0 359c0 20 15 35 34 35l27 0 0-27c0-6 5-11 11-11 7 0 12 5 12 11l0 27 69 0 0-27c0-6 5-11 11-11 6 0 12 5 12 11l0 27 69 0 0-27c0-6 5-11 11-11 6 0 11 5 11 11l0 27 27 0c19 0 35-15 35-35l0-359z m-288 240l180 0c5 0 10 5 10 10 0 6-5 11-10 11l-180 0c-5 0-9-5-9-11 0-5 4-10 9-10z m246-44l-246 0c-5 0-9-4-9-10 0-6 4-10 9-10l246 0c5 0 9 4 9 10 0 6-4 10-9 10z m0-68l-246 0c-5 0-9-5-9-11 0-5 4-10 9-10l246 0c5 0 9 5 9 10 0 6-4 11-9 11z m0-63l-246 0c-5 0-9-5-9-10 0-6 4-10 9-10l246 0c5 0 9 4 9 10 0 5-4 10-9 10z"/>
<glyph glyph-name="notes2-ie" unicode="&#126;" d="M124 154l179 0 0-52-179 0z m0 204l256 0 0-51-256 0z m307 103l-107 0c-11 29-39 51-72 51-34 0-62-22-72-51l-107 0c-4 0-7 0-11-1-10-2-19-7-26-14-4-5-8-11-11-17-2-6-4-12-4-19l0-359c0-7 2-14 4-20 3-6 7-11 11-16 7-7 16-12 26-14 4-1 7-1 11-1l358 0c28 0 51 23 51 51l0 359c0 28-23 51-51 51z m-179 6c10 0 19-9 19-19 0-10-9-19-19-19-11 0-19 9-19 19 0 10 8 19 19 19z m179-416l-358 0 0 359 358 0 0-359z m-307 205l256 0 0-51-256 0z"/>
<glyph glyph-name="notes3-ie" unicode="&#92;" d="M431 461l-107 0c-11 29-39 51-72 51-34 0-62-22-72-51l-107 0c-29 0-52-23-52-51l0-359c0-28 23-51 52-51l358 0c28 0 51 23 51 51l0 359c0 28-23 51-51 51z m-179 0c14 0 25-12 25-26 0-14-11-25-25-25-14 0-26 11-26 25 0 14 12 26 26 26z m51-359l-179 0 0 52 179 0z m77 103l-256 0 0 51 256 0z m0 102l-256 0 0 51 256 0z"/>
<glyph glyph-name="notification1-ie" unicode="&#57344;" d="M496 86l-42 0 0 206c0 101-77 185-176 194 1 2 1 4 1 6 0 11-8 20-19 20-11 0-20-9-20-20 0-2 1-4 1-6-98-9-175-93-175-193l0-206-41 0c-8 0-14-6-14-13 0-7 6-13 14-13l187 0 0-13c0-27 21-48 48-48 26 0 48 21 48 48l0 13 188 0c8 0 14 6 14 13 0 7-6 12-14 12m-406 93l1 113c0 94 76 170 169 170 93 0 169-76 169-170l1-113 0-93-340 0z m193-131c0-13-10-23-23-23-13 0-23 10-23 23l0 13 46 0 0-13z"/>
<glyph glyph-name="notification2-ie" unicode="&#57345;" d="M375 128l-230 0 0 166c0 64 51 116 115 116 64 0 115-52 115-116m52-140l0 140c0 79-55 145-128 162l0 18c0 21-18 38-39 38-21 0-38-17-38-38l0-18c-74-17-128-83-128-162l0-140-51-52 0-25 435 0 0 25m-218-102c29 0 51 23 51 51l-102 0c0-28 23-51 51-51"/>
<glyph glyph-name="notification3-ie" unicode="&#57346;" d="M502 38l0-28-502 0 0 28 56 56 0 167c0 87 56 163 139 187l0 8c0 31 25 56 56 56 31 0 55-25 55-56l0-8c83-24 140-100 140-187l0-167 56-56"/>
<glyph glyph-name="notification4-ie" unicode="&#57347;" d="M468 104l0-24-421 0 0 24 47 47 0 140c0 73 47 137 117 157l0 7c0 26 21 47 46 47 26 0 47-21 47-47l0-7c70-20 117-84 117-157l0-140 47-47m-164-47c0-26-21-47-47-47-25 0-46 21-46 47m228 417l-33-33c40-40 62-94 62-150l47 0c0 69-27 135-76 183m-439-183l47 0c0 56 22 110 62 150l-33 33c-49-48-76-114-76-183"/>
<glyph glyph-name="pussapp1-ie" unicode="&#57348;" d="M357 512l-199 0c-25 0-45-20-45-45l0-422c0-12 5-23 13-31 8-9 20-14 32-14l0 0 199 0c25 1 45 21 45 45l0 422c0 25-20 45-45 45z m23-418l0-49c0-13-11-23-24-24l-199 1c-12 0-23 10-23 23l0 15 0 34z m0 330l0-309-246 0 0 309z m-223 67l200 0c13 0 23-11 24-24l0-22-247 0 0 23c1 12 11 22 23 23z m121-433c0-12-9-22-21-22-12 0-21 10-21 22 0 11 9 21 21 21 12 0 21-10 21-21z"/>
<glyph glyph-name="pussapp2-ie" unicode="&#57349;" d="M301 70l-233 0 0 372 233 0 0-46 46 0 0 69c0 26-21 47-46 47l-233 0c-26 0-47-21-47-47l0-418c0-26 21-47 47-47l233 0c25 0 46 21 46 47l0 69-46 0z m84 292l-18-17 68-69-149 0 0-25 149 0-68-68 18-18 98 99z"/>
<glyph glyph-name="pussapp3-ie" unicode="&#57350;" d="M251 215l15-15 81 81-81 82-15-15 56-56-123 0 0-21 123 0z m101 297l-186 0c-39 0-70-31-70-70l0-372c0-39 31-70 70-70l186 0c39 0 70 31 70 70l0 372c0 39-31 70-70 70z m-47-465l-93 0 0 23 93 0z m76 69l-244 0 0 326 244 0 0-326z"/>
<glyph glyph-name="q-mark1-ie" unicode="&#57351;" d="M256 512c-141 0-256-115-256-256 0-141 115-256 256-256 141 0 256 115 256 256 0 141-115 256-256 256z m0-461c-113 0-205 92-205 205 0 113 92 205 205 205 113 0 205-92 205-205 0-113-92-205-205-205z m-26 103l52 0 0-52-52 0z m26 256c-57 0-102-46-102-103l51 0c0 28 23 51 51 51 28 0 51-23 51-51 0-51-77-45-77-128l52 0c0 58 76 64 76 128 0 57-45 103-102 103z"/>
<glyph glyph-name="q-mark2-ie" unicode="&#57352;" d="M256 512c-141 0-256-115-256-256 0-141 115-256 256-256 141 0 256 115 256 256 0 142-115 256-256 256z m26-435l-52 0 0 51 52 0z m53 198l-23-23c-19-19-30-34-30-73l-52 0 0 13c0 28 12 54 30 72l32 33c10 9 15 22 15 36 0 28-23 51-51 51-28 0-51-23-51-51l-51 0c0 56 45 102 102 102 57 0 102-46 102-102 0-23-9-43-23-58z"/>
<glyph glyph-name="recode1-ie" unicode="&#57353;" d="M452 316c-6 0-11-5-11-12l0-252c0-16-13-29-29-29l-360 0c-16 0-30 13-30 29l0 360c0 16 14 29 30 29l252 0c7 0 12 5 12 11 0 6-5 11-12 11l-252 0c-29 0-52-23-52-51l0-361c0-28 23-51 52-51l360 0c28 0 51 23 51 51l0 253c0 7-5 12-11 12z m60 187l0 1-1 0 1 0-1 2-2 2c0 0-1 1-1 2l-2 0 0 1-1 0-1 1-1 0 0 0-2 0-123 0c-6 0-11-5-11-11 0-6 5-11 11-11l96 0-323-323c-2-2-3-5-3-8 0-3 1-6 3-8 2-2 5-3 8-3 3 0 6 1 8 3l323 323 0-96c0-6 5-11 11-11 6 0 11 5 11 11l0 123z"/>
<glyph glyph-name="remove1-ie" unicode="&#57354;" d="M256 512c-141 0-256-115-256-256 0-141 115-256 256-256 141 0 256 115 256 256 0 141-115 256-256 256z m167-423c-45-44-104-69-167-69-63 0-122 25-167 69-44 45-69 104-69 167 0 63 25 122 69 166 45 45 104 69 167 69 63 0 122-24 167-69 44-44 69-103 69-166 0-63-25-122-69-167z m-99 177l-136 0c-6 0-10-4-10-9 0-6 5-10 10-10l136 0c6 0 10 4 10 10 0 5-5 9-10 9z"/>
<glyph glyph-name="remove2-ie" unicode="&#57355;" d="M256 512c-141 0-256-115-256-256 0-141 115-256 256-256 141 0 256 115 256 256 0 141-115 256-256 256z m0-461c-113 0-205 92-205 205 0 113 92 205 205 205 113 0 205-92 205-205 0-113-92-205-205-205z m-128 231l256 0 0-52-256 0z"/>
<glyph glyph-name="remove3-ie" unicode="&#57356;" d="M256 512c-141 0-256-115-256-256 0-141 115-256 256-256 141 0 256 115 256 256 0 141-115 256-256 256z m128-282l-256 0 0 52 256 0z"/>
<glyph glyph-name="remove4-ie" unicode="&#57357;" d="M254 512c-140 0-254-114-254-254 0-140 114-255 254-255 140 0 255 115 255 255 0 140-115 254-255 254z m0-496c-133 0-241 109-241 242 0 133 108 241 241 241 133 0 242-108 242-241 0-133-109-242-242-242z m141 248l-281 0c-4 0-7-3-7-6 0-4 3-7 7-7l281 0c3 0 6 3 6 7 0 3-3 6-6 6z"/>
<glyph glyph-name="search1-ie" unicode="&#57358;" d="M506 20l-188 188c29 33 47 75 47 122 0 100-82 182-183 182-100 0-182-82-182-182 0-101 82-183 182-183 46 0 87 17 119 45l189-189c2-2 5-3 8-3 3 0 6 1 8 3 3 3 4 6 4 9 0 3-1 6-4 8m-482 310c0 87 71 158 158 158 88 0 159-71 159-158 0-87-71-159-159-159-87 0-158 71-158 159"/>
<glyph glyph-name="search2-ie" unicode="&#57359;" d="M190 512c105 0 190-85 190-190 0-47-17-91-45-124l8-8 23 0 146-146-44-44-146 146 0 23-8 8c-33-28-77-45-124-45-105 0-190 85-190 190 0 105 85 190 190 190m0-59c-73 0-131-58-131-131 0-73 58-132 131-132 73 0 132 59 132 132 0 73-59 131-132 131"/>
<glyph glyph-name="search3-ie" unicode="&#57360;" d="M366 190l-23 0-8 8c28 33 45 77 45 124 0 105-85 190-190 190-105 0-190-85-190-190 0-105 85-190 190-190 47 0 91 17 124 45l8-8 0-23 146-146 44 44z"/>
<glyph glyph-name="setting1-ie" unicode="&#57361;" d="M509 285c-1 6-6 11-12 11l-59 3c-2 11-5 21-9 30-4 9-8 18-14 27l39 44c4 5 4 12 1 16-12 15-26 28-40 40-3 2-5 3-8 3-2 0-5-1-8-3l-44-40c-18 11-37 19-57 24l-4 59c0 6-5 11-11 11-18 3-37 3-56 0-6 0-11-5-11-11l-3-59c-11-3-21-6-30-9-9-4-18-9-27-15l-44 40c-3 2-6 3-9 3-2 0-5-1-7-3-15-12-28-25-40-40-4-4-4-11 1-16l39-44c-11-17-19-37-24-57l-59-3c-6 0-11-5-11-11-3-19-3-38 0-56 0-6 5-11 11-11l59-3c3-11 6-21 9-30 4-9 9-18 15-27l-40-45c-4-4-4-11 0-16 12-14 25-28 40-40 2-1 5-2 7-2 3 0 6 0 9 3l44 39c17-11 37-19 57-23l3-59c0-6 5-11 11-12 9-1 19-1 28-1 10 0 19 0 28 1 6 1 11 6 11 12l3 59c12 2 21 5 30 9 9 4 18 8 27 14l45-39c5-4 11-4 16-1 14 12 28 26 40 40 3 5 3 12-1 16l-39 44c11 18 19 37 23 57l59 4c6 0 11 5 12 11 2 18 2 37 0 56z m-18-49l-54-3c-8-1-15-6-17-14-4-19-11-36-21-52-4-7-3-16 2-22l36-40c-9-11-19-21-30-30l-40 36c-6 5-15 6-22 2-9-5-17-10-25-13-8-3-17-6-27-8-7-2-13-9-14-17l-3-54c-14-1-28-1-42 0l-3 54c0 8-6 15-14 17-18 4-36 11-52 21-6 4-15 3-21-2l-41-36c-10 9-20 19-29 30l36 40c5 6 6 15 2 22-6 9-10 17-14 25-3 8-6 17-8 27-2 7-8 13-16 14l-55 3c-1 14-1 28 0 42l55 3c7 0 14 6 16 14 4 18 12 36 21 52 5 6 4 15-1 21l-36 41c9 10 19 20 29 29l41-36c3-3 7-4 12-4 3 0 7 1 9 2 9 6 17 10 25 14 8 3 17 6 27 8 8 2 14 8 14 16l3 55c14 1 28 1 42 0l3-55c1-7 7-14 14-16 19-4 36-12 52-21 7-5 16-4 22 1l40 36c11-9 21-19 30-29l-36-41c-5-6-6-15-2-21 5-9 10-17 13-25 3-8 6-17 8-27 2-8 9-14 17-14l54-3c1-14 1-28 0-42z m-236 124c-57 0-103-46-103-103 0-57 46-103 103-103l0 0c57 0 103 46 103 103 0 57-46 103-103 103z m0-188c-47 0-85 38-85 85 0 46 39 84 85 84 47 0 85-38 85-84 0-47-38-85-85-85z"/>
<glyph glyph-name="star1-ie" unicode="&#57362;" d="M70 487c0 0-1 1-1 1l-23 3-10 20c0 1-1 1-1 1-1 0-1 0-1-1l-10-20-23-3c0 0-1-1-1-1 0-1 0-1 0-2l17-15-4-23c0 0 0-1 0-1 1 0 1 0 2 0l20 10 20-10c0 0 1 0 1 0 0 0 0 0 0 0 1 0 1 1 1 1l-4 23 16 15c1 1 1 1 1 2z m-19-16c0 0-1-1 0-1l3-21-19 10c0 0 0 0 0 0 0 0 0 0-1 0l-18-10 3 21c0 0 0 1 0 1l-15 15 21 3c0 0 0 0 1 0l9 19 9-19c0 0 1 0 1 0l21-3z"/>
<glyph glyph-name="star2-ie" unicode="&#57363;" d="M241 68l-108-57c-24-12-52 8-47 34l21 121c1 10-2 21-10 28l-87 86c-19 19-9 51 18 55l121 17c10 2 19 9 24 18l54 110c12 24 46 24 58 0l54-110c5-9 14-16 24-18l122-17c26-4 36-36 17-55l-87-86c-8-7-11-18-10-28l21-121c5-26-23-46-47-34l-108 57c-9 5-21 5-30 0"/>
<glyph glyph-name="update1-ie" unicode="&#57364;" d="M256 512c-141 0-256-115-256-256 0-141 115-256 256-256 141 0 256 115 256 256 0 141-115 256-256 256z m166-422c-44-45-103-69-166-69-63 0-122 24-166 69-45 44-69 103-69 166 0 63 24 122 69 166 44 45 103 69 166 69 63 0 122-24 166-69 45-44 69-103 69-166 0-63-24-122-69-166z m-72 78c-7 0-12-5-12-11 0-29-23-52-52-52-22 0-39 17-39 39l0 238 58-63c5-5 12-5 17-1 5 5 5 12 0 17l-78 84c-5 5-13 5-17 0l-79-84c-5-5-4-12 0-17 5-4 13-4 17 1l59 63 0-238c0-35 28-63 62-63 42 0 75 34 75 75 0 7-5 12-11 12z"/>
<glyph glyph-name="userf1-ie" unicode="&#57365;" d="M317 428c82 20 167-86 167-86-3 41-18 75-34 100-27 44-76 71-128 70-71-1-101-53-111-76-45-7-86-29-118-61-42-41-65-96-65-155 0-122 99-221 220-221 58 0 114 23 155 64 42 41 65 97 65 156 0 97-63 180-151 209z m-258-133c17 10 56 29 98 17 57-16 176 63 176 63 0 0-13-81 101-70 12-26 19-54 20-85 0-113-92-205-205-205-113 0-204 92-204 205 0 27 5 52 14 75z m246-45l0 0c3 0 6 1 7 4 3 5 9 9 15 9 6 0 11-3 14-9 2-3 4-4 7-4l1 0c3 0 5 1 7 3 1 2 1 5 0 7-5 12-16 19-29 19-12 0-24-7-29-19-1-2-1-5 0-7 1-2 4-3 7-3z m-158 0l2 0c3 0 6 1 7 4 3 5 8 9 14 9 6 0 12-3 15-9 1-3 4-4 7-4l1 0c2 0 5 1 6 3 2 2 2 5 1 8-5 11-16 18-28 18-1 0-2 0-3 0l0 0c-12 0-23-7-29-18-1-2-1-5 1-7 1-3 3-4 6-4z m25-120c-2 2-4 3-6 3-2 0-3 0-5-1-2-2-3-4-3-6-1-2 0-4 1-6 22-28 54-44 89-44 34 0 67 16 88 44 2 2 2 4 2 6-1 2-2 4-4 6-1 0-3 1-4 1-3 0-5-1-7-3-18-25-45-38-76-38-29 0-57 14-75 38z"/>
<glyph glyph-name="userf2-ie" unicode="&#57366;" d="M398 202c0 0-15 5-19 6l-20 2-30-88c-6 2-13 3-19 3-30 0-55-25-55-55 0 0 0 0 0 0 0 30 25 55 55 55 6 0 13-1 19-3l30 88c0 0-18 5-20 7l0 0c-4 1-6 3-9 4-2-1-3-3-4-4-20-22-46-35-71-35-24 0-50 13-70 35-2 1-3 3-4 4-2-2-6-3-9-4-9-4-20-7-20-7l15-45-15 45-20-2c0 0-14-3-19-6l0 0c-8-4-14-9-21-14-14-14-22-33-22-55l0-72c17-13 36-24 56-33l0 43c0 18 6 32 15 45l0 0c-9-13-15-27-15-45l0-43c0 0 12-6 22-9l0 0c33-13 69-19 107-19 39 0 75 6 108 19 0 0 18 8 22 9l0 43c0 18-6 32-15 45l0 0c9-13 15-27 15-45l0-43c20 8 39 20 56 33l0 72c0 30-17 56-43 69z m-216 52c11-16 22-29 35-37 12-9 27-13 40-13 12 0 25 4 38 13l-1 0c13 8 24 21 35 37 6-13 19-23 34-23 9 0 17-1 25-3l-13 175c1 60-52 109-120 109-66 0-120-49-120-109l-13-175c8 2 16 3 25 3 16-1 28 9 35 23z"/>
<glyph glyph-name="userm1-ie" unicode="&#57367;" d="M255 512c-68 0-132-27-180-75-48-48-75-112-75-180 0-142 114-257 255-257 69 0 133 26 181 74 49 48 76 113 76 181 0 142-115 257-257 257z m-151-169c33 63 115 70 213 46 73-18 85 28 86 53 55-43 91-110 92-185 0-131-107-238-238-238-131 0-238 107-238 238 0 65 26 123 68 166-13-60 17-80 17-80z m217-52l1 0c4 0 7 2 8 6 4 6 10 10 17 10 7 0 13-4 17-10 1-4 4-6 8-6l1 0c3 0 6 2 7 5 2 2 2 5 1 8-6 13-19 21-34 21-14 0-27-8-34-21-1-3-1-6 1-8 1-3 4-5 7-5z m-183 0l2 0c4 0 7 2 8 6 4 6 10 10 17 10 7 0 13-4 16-10 2-4 5-6 8-6l1 0c4 0 6 2 8 5 2 2 2 5 1 8-6 13-19 21-33 21-1 0-2 0-3 0l0 0c-14 0-27-8-34-20-1-3-1-6 1-9 2-3 5-5 8-5z m29-139c-2 2-5 4-8 4-1 0-3-1-5-2-2-1-3-3-4-6 0-3 0-5 2-7 25-33 63-52 103-52 40 0 78 19 103 52 2 2 2 4 2 7-1 3-2 5-4 6l-1 0c-1 1-3 2-5 2-2 0-5-2-7-4-21-29-53-45-88-45-35 1-67 17-88 45z"/>
<glyph glyph-name="userm2-ie" unicode="&#57368;" d="M471 159c0-30 0-61 0-91-44-33-93-54-147-64-12-2-24-4-35-6-20 0-40 0-60 0-2 1-3 2-5 2-62 5-118 27-170 63-2 1-4 2-6 3 0 33 0 65 0 98 0 1 1 3 1 4 8 36 34 62 70 67 19 3 38 7 55 15 5-5 10-10 14-14 19-16 41-28 67-29 30-2 55 11 76 31 9 9 18 8 29 6 10-3 21-6 32-7 31-5 54-19 69-46 5-10 7-21 10-32z m-198 351c59-16 82-62 90-118 5-44-3-85-30-121-18-24-42-40-75-40-25 1-45 12-62 30-24 25-36 57-39 91-3 36 2 70 20 102 15 29 38 49 71 56 8 0 16 0 25 0z"/>
<glyph glyph-name="view1-ie" unicode="&#57369;" d="M507 264c-22 48-57 88-101 117-45 30-98 46-152 46-54 0-107-16-152-46-44-29-79-69-101-117-2-4-1-9 1-14 21-47 56-88 100-117 45-29 98-45 152-45 54 0 107 16 152 45 44 29 79 70 101 118l0 1c2 4 2 8 0 12z m-36-13c-42-81-126-131-217-131-91 0-175 51-217 132-2 3-2 8 0 11 42 81 126 132 217 132 91 0 175-51 217-131 2-4 2-9 0-13z m-217 80c-40 0-73-32-73-72 0-41 33-73 73-73 40 0 73 32 73 73 0 40-33 72-73 72z m0-113c-22 0-41 18-41 41 0 22 19 40 41 40 23 0 41-18 41-40 0-23-18-41-41-41z"/>
<glyph glyph-name="view2-ie" unicode="&#57370;" d="M330 256c0-39-32-71-71-71-39 0-71 32-71 71 0 39 32 71 71 71 39 0 71-32 71-71z m-71 177c-118 0-218-74-259-177 41-103 141-177 259-177 118 0 218 74 259 177-41 103-141 177-259 177z m0-306c-89 0-169 50-208 129 39 79 119 129 208 129 88 0 169-50 208-129-39-79-120-129-208-129z"/>
<glyph glyph-name="view3-ie" unicode="&#57371;" d="M330 256c0-39-32-71-71-71-39 0-71 32-71 71 0 39 32 71 71 71 39 0 71-32 71-71z m-71 177c-118 0-218-74-259-177 41-103 141-177 259-177 118 0 218 74 259 177-41 103-141 177-259 177z m0-295c-65 0-118 53-118 118 0 65 53 118 118 118 65 0 118-53 118-118 0-65-53-118-118-118z"/>
<glyph glyph-name="warning1-ie" unicode="&#57372;" d="M309 57c0 31-24 57-53 57-30 0-53-26-53-57 0-32 23-57 53-57 29 0 53 25 53 57z m-23 455l-61 0c-12 0-22-11-22-24l0-293c0-13 10-24 22-24l61 0c12 0 23 11 23 24l0 293c0 13-11 24-23 24z"/>
<glyph glyph-name="warning2-ie" unicode="&#57373;" d="M502 79l-221 383c-12 22-43 22-55 0l-222-383c-12-21 3-48 28-48l442 0c25 0 40 27 28 48z m-230 276l-6-187-26 0-6 187z m-19-267l0 0c-13 0-23 11-23 24 0 14 10 24 23 24 14 0 23-10 23-24 0-13-9-24-23-24z"/>
<glyph glyph-name="cancel" unicode="&#57374;" d="M367 176c6-6 9-13 9-22 0-8-3-16-9-22-6-5-13-8-22-8-8 0-16 3-22 8 0 0-68 78-68 78 0 0-67-78-67-78-6-5-14-8-22-8-9 0-16 3-22 8-6 6-8 14-8 22 0 9 2 16 8 22 0 0 71 80 71 80 0 0-71 81-71 81-6 6-8 13-8 22 0 8 2 16 8 22 6 5 13 8 22 8 8 0 16-3 22-8 0 0 67-78 67-78 0 0 68 78 68 78 6 5 14 8 22 8 9 0 16-3 22-8 6-6 9-14 9-22 0-9-3-16-9-22 0 0-71-81-71-81 0 0 71-80 71-80"/>
<glyph glyph-name="ios-plus-empty" unicode="&#57375;" d="M384 247l-120 0 0-119-17 0 0 119-119 0 0 17 119 0 0 120 17 0 0-120 120 0z"/>
<glyph glyph-name="ios-minus-empty" unicode="&#57376;" d="M384 247l-256 0 0 17 256 0z"/>
</font>
</defs>
</svg>
